<?xml version="1.0" encoding="UTF-8"?>
<svg id="Layer_2" data-name="Layer 2" xmlns="http://www.w3.org/2000/svg" viewBox="0 0 493.52 290.7">
  <g id="Layer_8" data-name="Layer 8">
    <path d="M493.52,145.35c0,80.14-65.21,145.35-145.35,145.35v-87.87c31.69,0,57.48-25.79,57.48-57.48s-25.79-57.48-57.48-57.48-57.48,25.79-57.48,57.48c0,80.14-65.2,145.35-145.35,145.35v-87.87c31.69,0,57.48-25.79,57.48-57.48s-25.78-57.48-57.48-57.48-57.48,25.79-57.48,57.48H0C0,65.21,65.2,0,145.35,0c39.41,0,75.21,15.76,101.41,41.32C272.97,15.76,308.77,0,348.17,0c80.15,0,145.35,65.21,145.35,145.35Z"/>
  </g>
</svg>